<svg width="165" height="56" viewBox="0 0 165 56" fill="none" xmlns="http://www.w3.org/2000/svg">
<g clip-path="url(#clip0_2265_129)">
<path fill-rule="evenodd" clip-rule="evenodd" d="M58.0142 -2.54879C59.3029 -1.26006 59.3029 0.829391 58.0142 2.11812L43.0618 17.0704C41.7731 18.3591 39.6837 18.3591 38.3949 17.0704C37.1062 15.7817 37.1062 13.6922 38.3949 12.4035L53.3473 -2.54879C54.636 -3.83752 56.7255 -3.83752 58.0142 -2.54879Z" fill="black"/>
<path fill-rule="evenodd" clip-rule="evenodd" d="M35.7095 19.7559C36.9982 21.0446 36.9982 23.1341 35.7095 24.4228L31.1878 28.9445C29.8991 30.2332 27.8096 30.2332 26.5209 28.9445C25.2321 27.6558 25.2321 25.5663 26.5209 24.2776L31.0426 19.7559C32.3313 18.4672 34.4208 18.4672 35.7095 19.7559Z" fill="black"/>
<path fill-rule="evenodd" clip-rule="evenodd" d="M23.8345 31.6304C25.1232 32.9191 25.1232 35.0086 23.8345 36.2973L8.88216 51.2496C7.59342 52.5383 5.50397 52.5383 4.21523 51.2496C2.9265 49.9609 2.9265 47.8714 4.21523 46.5827L19.1676 31.6304C20.4563 30.3417 22.5458 30.3417 23.8345 31.6304Z" fill="black"/>
<path fill-rule="evenodd" clip-rule="evenodd" d="M57.9206 14.445C59.2094 15.7337 59.2094 17.8232 57.9206 19.1119L42.9683 34.0642C41.6795 35.3529 39.5901 35.3529 38.3014 34.0642C37.0126 32.7754 37.0126 30.686 38.3014 29.3973L53.2537 14.445C54.5424 13.1563 56.6319 13.1563 57.9206 14.445Z" fill="black"/>
<path fill-rule="evenodd" clip-rule="evenodd" d="M35.612 36.7502C36.9007 38.0389 36.9007 40.1283 35.612 41.4171L31.0903 45.9388C29.8015 47.2275 27.7121 47.2275 26.4233 45.9388C25.1346 44.65 25.1346 42.5606 26.4233 41.2718L30.945 36.7502C32.2338 35.4614 34.3232 35.4614 35.612 36.7502Z" fill="black"/>
<path fill-rule="evenodd" clip-rule="evenodd" d="M23.7389 48.6244C25.0277 49.9132 25.0277 52.0026 23.7389 53.2913L8.78658 68.2436C7.49784 69.5324 5.40839 69.5324 4.11965 68.2436C2.83092 66.9549 2.83092 64.8654 4.11965 63.5767L19.072 48.6244C20.3607 47.3357 22.4502 47.3357 23.7389 48.6244Z" fill="black"/>
<path fill-rule="evenodd" clip-rule="evenodd" d="M36.5982 1.96928C37.8869 3.25801 37.8869 5.34746 36.5982 6.63619L21.6458 21.5885C20.3571 22.8772 18.2676 22.8772 16.9789 21.5885C15.6902 20.2997 15.6902 18.2103 16.9789 16.9216L31.9313 1.96928C33.22 0.680549 35.3094 0.680549 36.5982 1.96928Z" fill="black"/>
<path fill-rule="evenodd" clip-rule="evenodd" d="M14.2935 24.274C15.5822 25.5627 15.5822 27.6521 14.2935 28.9409L9.77179 33.4626C8.48306 34.7513 6.3936 34.7513 5.10486 33.4626C3.81613 32.1738 3.81613 30.0844 5.10486 28.7957L9.62656 24.274C10.9153 22.9852 13.0048 22.9852 14.2935 24.274Z" fill="black"/>
<path fill-rule="evenodd" clip-rule="evenodd" d="M2.41849 36.1485C3.70723 37.4372 3.70723 39.5267 2.41849 40.8154L-12.5339 55.7677C-13.8226 57.0564 -15.912 57.0564 -17.2008 55.7677C-18.4895 54.4789 -18.4895 52.3895 -17.2008 51.1008L-2.24844 36.1485C-0.959701 34.8597 1.12975 34.8597 2.41849 36.1485Z" fill="black"/>
<path fill-rule="evenodd" clip-rule="evenodd" d="M24.5514 -2.88033C25.8401 -1.5916 25.8401 0.497849 24.5514 1.78658L20.0297 6.30826C18.7409 7.597 16.6515 7.597 15.3627 6.30827C14.074 5.01954 14.074 2.93009 15.3627 1.64136L19.8844 -2.88033C21.1732 -4.16906 23.2626 -4.16906 24.5514 -2.88033Z" fill="black"/>
<path fill-rule="evenodd" clip-rule="evenodd" d="M12.6783 8.99418C13.9671 10.2829 13.9671 12.3724 12.6783 13.6611L-2.27403 28.6134C-3.56277 29.9021 -5.65222 29.9021 -6.94096 28.6134C-8.22969 27.3246 -8.22969 25.2352 -6.94096 23.9465L8.01139 8.99418C9.30013 7.70545 11.3896 7.70545 12.6783 8.99418Z" fill="black"/>
<path fill-rule="evenodd" clip-rule="evenodd" d="M56.1626 33.0987C57.4514 34.3874 57.4514 36.4769 56.1626 37.7656L51.6409 42.2873C50.3522 43.576 48.2627 43.576 46.974 42.2873C45.6853 40.9985 45.6853 38.9091 46.974 37.6204L51.4957 33.0987C52.7844 31.8099 54.8739 31.8099 56.1626 33.0987Z" fill="black"/>
<path fill-rule="evenodd" clip-rule="evenodd" d="M44.2857 44.9729C45.5744 46.2617 45.5744 48.3511 44.2857 49.6399L29.3333 64.5921C28.0446 65.8809 25.9551 65.8809 24.6664 64.5921C23.3777 63.3034 23.3777 61.214 24.6664 59.9252L39.6187 44.9729C40.9075 43.6842 42.9969 43.6842 44.2857 44.9729Z" fill="black"/>
</g>
<path d="M72.2333 40.1326V16.0171H77.3695V35.9099H87.1946V40.1326H72.2333Z" fill="black"/>
<path d="M113.406 28.0418C113.406 29.9002 113.174 31.5937 112.71 33.1222C112.246 34.6398 111.539 35.9484 110.589 37.048C109.65 38.1477 108.457 38.9944 107.01 39.5882C105.563 40.171 103.851 40.4625 101.874 40.4625C99.897 40.4625 98.1849 40.171 96.738 39.5882C95.291 38.9944 94.0926 38.1477 93.1426 37.048C92.2038 35.9484 91.5024 34.6343 91.0384 33.1057C90.5745 31.5772 90.3426 29.8783 90.3426 28.0088C90.3426 25.5126 90.7513 23.3408 91.5686 21.4934C92.3971 19.6349 93.6673 18.1944 95.3794 17.1717C97.0914 16.149 99.2674 15.6377 101.907 15.6377C104.536 15.6377 106.696 16.149 108.386 17.1717C110.087 18.1944 111.346 19.6349 112.163 21.4934C112.992 23.3518 113.406 25.5346 113.406 28.0418ZM95.7273 28.0418C95.7273 29.7243 95.9372 31.1758 96.3569 32.3965C96.7877 33.6061 97.4559 34.5408 98.3617 35.2006C99.2674 35.8494 100.438 36.1738 101.874 36.1738C103.332 36.1738 104.514 35.8494 105.42 35.2006C106.326 34.5408 106.983 33.6061 107.391 32.3965C107.811 31.1758 108.021 29.7243 108.021 28.0418C108.021 25.5126 107.546 23.5222 106.596 22.0707C105.646 20.6191 104.083 19.8934 101.907 19.8934C100.46 19.8934 99.2785 20.2233 98.3617 20.8831C97.4559 21.5319 96.7877 22.4666 96.3569 23.6872C95.9372 24.8968 95.7273 26.3484 95.7273 28.0418Z" fill="black"/>
<path d="M127.621 26.5903H137.231V39.0934C135.961 39.5112 134.641 39.8466 133.271 40.0996C131.902 40.3415 130.35 40.4625 128.616 40.4625C126.208 40.4625 124.164 39.9896 122.485 39.0439C120.806 38.0982 119.531 36.7016 118.658 34.8542C117.785 33.0068 117.349 30.736 117.349 28.0418C117.349 25.5126 117.835 23.3243 118.807 21.4769C119.79 19.6295 121.221 18.1999 123.098 17.1882C124.987 16.1765 127.29 15.6707 130.007 15.6707C131.289 15.6707 132.553 15.8081 133.801 16.0831C135.05 16.358 136.182 16.7154 137.198 17.1552L135.491 21.2459C134.751 20.8721 133.906 20.5587 132.956 20.3057C132.007 20.0528 131.012 19.9264 129.974 19.9264C128.483 19.9264 127.185 20.2673 126.081 20.949C124.987 21.6308 124.137 22.5875 123.529 23.8191C122.933 25.0398 122.634 26.4803 122.634 28.1408C122.634 29.7133 122.85 31.1099 123.281 32.3305C123.711 33.5401 124.391 34.4913 125.318 35.1841C126.246 35.8659 127.456 36.2068 128.947 36.2068C129.676 36.2068 130.289 36.1738 130.786 36.1078C131.294 36.0308 131.769 35.9539 132.211 35.8769V30.846H127.621V26.5903Z" fill="black"/>
<path d="M165 28.0418C165 29.9002 164.768 31.5937 164.304 33.1222C163.84 34.6398 163.133 35.9484 162.183 37.048C161.244 38.1477 160.051 38.9944 158.604 39.5882C157.157 40.171 155.445 40.4625 153.468 40.4625C151.491 40.4625 149.779 40.171 148.332 39.5882C146.885 38.9944 145.686 38.1477 144.737 37.048C143.798 35.9484 143.096 34.6343 142.632 33.1057C142.168 31.5772 141.937 29.8783 141.937 28.0088C141.937 25.5126 142.345 23.3408 143.163 21.4934C143.991 19.6349 145.261 18.1944 146.973 17.1717C148.685 16.149 150.861 15.6377 153.501 15.6377C156.13 15.6377 158.289 16.149 159.979 17.1717C161.68 18.1944 162.94 19.6349 163.757 21.4934C164.585 23.3518 165 25.5346 165 28.0418ZM147.321 28.0418C147.321 29.7243 147.531 31.1758 147.951 32.3965C148.382 33.6061 149.05 34.5408 149.956 35.2006C150.861 35.8494 152.032 36.1738 153.468 36.1738C154.926 36.1738 156.108 35.8494 157.014 35.2006C157.919 34.5408 158.577 33.6061 158.985 32.3965C159.405 31.1758 159.615 29.7243 159.615 28.0418C159.615 25.5126 159.14 23.5222 158.19 22.0707C157.24 20.6191 155.677 19.8934 153.501 19.8934C152.054 19.8934 150.872 20.2233 149.956 20.8831C149.05 21.5319 148.382 22.4666 147.951 23.6872C147.531 24.8968 147.321 26.3484 147.321 28.0418Z" fill="black"/>
<defs>
<clipPath id="clip0_2265_129">
<rect y="0.464844" width="55.2452" height="55" rx="27.5" fill="white"/>
</clipPath>
</defs>
</svg>
